HIERARCHY
ROOT hip
{
  OFFSET 0.00112043 5.09927 -9.65472
  CHANNELS 6 Xposition Yposition Zposition Zrotation Xrotation Yrotation
  JOINT abdomen
  {
    OFFSET 0 -1.186 -1.5018
    CHANNELS 3 Zrotation Xrotation Yrotation
    JOINT abdomen2
    {
      OFFSET 0 9.964 0.2134
      CHANNELS 3 Zrotation Xrotation Yrotation
      JOINT chest
      {
        OFFSET 0 13.134 -3.2573
        CHANNELS 3 Zrotation Xrotation Yrotation
        JOINT neck
        {
          OFFSET 0 20.686 -1.6905
          CHANNELS 3 Zrotation Xrotation Yrotation
          JOINT head
          {
            OFFSET 0 7.238 -0.1237
            CHANNELS 3 Zrotation Xrotation Yrotation
            End Site
            {
              OFFSET 0 0 0
            }
          }
        }
        JOINT lCollar
        {
          OFFSET 1.7069 20.075 5.0056
          CHANNELS 3 Zrotation Xrotation Yrotation
          JOINT lShldr
          {
            OFFSET 13.6458 -0.047 -4.849
            CHANNELS 3 Zrotation Xrotation Yrotation
            JOINT lForeArm
            {
              OFFSET 28.3255 -0.9759 2.2888
              CHANNELS 3 Zrotation Xrotation Yrotation
              JOINT lHand
              {
                OFFSET 22.1583 -0.53 10.8316
                CHANNELS 3 Zrotation Xrotation Yrotation
                JOINT lThumb1
                {
                  OFFSET 0.786 0.112 2.5817
                  CHANNELS 3 Zrotation Xrotation Yrotation
                  JOINT lThumb2
                  {
                    OFFSET 0.3601 -0.878 4.2331
                    CHANNELS 3 Zrotation Xrotation Yrotation
                    JOINT lThumb2_End
                    {
                      OFFSET 1.8127 -1.216 2.2227
                      CHANNELS 3 Zrotation Xrotation Yrotation
                      End Site
                      {
                        OFFSET 0.0181 -0.0122 0.0222
                      }
                    }
                  }
                }
                JOINT lCarpal1
                {
                  OFFSET 0.9571 1.114 1.7695
                  CHANNELS 3 Zrotation Xrotation Yrotation
                  JOINT lIndex1
                  {
                    OFFSET 4.1246 0.487 4.1451
                    CHANNELS 3 Zrotation Xrotation Yrotation
                    JOINT lIndex2
                    {
                      OFFSET 3.4052 -1.454 2.7682
                      CHANNELS 3 Zrotation Xrotation Yrotation
                      JOINT lIndex2_End
                      {
                        OFFSET 1.4531 -1.795 1.2713
                        CHANNELS 3 Zrotation Xrotation Yrotation
                        End Site
                        {
                          OFFSET 0.0145 -0.0179 0.0127
                        }
                      }
                    }
                  }
                  JOINT lMid1
                  {
                    OFFSET 5.6954 0.21 2.1184
                    CHANNELS 3 Zrotation Xrotation Yrotation
                    JOINT lMid2
                    {
                      OFFSET 3.9766 -1.54 2.3863
                      CHANNELS 3 Zrotation Xrotation Yrotation
                      JOINT lMid2_End
                      {
                        OFFSET 1.4042 -1.926 1.125
                        CHANNELS 3 Zrotation Xrotation Yrotation
                        End Site
                        {
                          OFFSET 0.014 -0.0193 0.0113
                        }
                      }
                    }
                  }
                }
                JOINT lCarpal2
                {
                  OFFSET 2.0956 0.66 -0.3894
                  CHANNELS 3 Zrotation Xrotation Yrotation
                  JOINT lRing1
                  {
                    OFFSET 5.0395 -0.09 2.4971
                    CHANNELS 3 Zrotation Xrotation Yrotation
                    JOINT lRing2
                    {
                      OFFSET 3.7921 -1.552 1.4806
                      CHANNELS 3 Zrotation Xrotation Yrotation
                      JOINT lRing2_End
                      {
                        OFFSET 1.4655 -1.808 0.9609
                        CHANNELS 3 Zrotation Xrotation Yrotation
                        End Site
                        {
                          OFFSET 0.0147 -0.0181 0.0096
                        }
                      }
                    }
                  }
                  JOINT lPinky1
                  {
                    OFFSET 4.9141 -1.269 0.3591
                    CHANNELS 3 Zrotation Xrotation Yrotation
                    JOINT lPinky2
                    {
                      OFFSET 3.1477 -1.685 0.8462
                      CHANNELS 3 Zrotation Xrotation Yrotation
                      JOINT lPinky2_End
                      {
                        OFFSET 0.8055 -1.585 0.7955
                        CHANNELS 3 Zrotation Xrotation Yrotation
                        End Site
                        {
                          OFFSET 0.0081 -0.0158 0.008
                        }
                      }
                    }
                  }
                }
              }
            }
          }
        }
        JOINT rCollar
        {
          OFFSET -1.7069 20.075 5.0056
          CHANNELS 3 Zrotation Xrotation Yrotation
          JOINT rShldr
          {
            OFFSET -13.6458 -0.047 -4.849
            CHANNELS 3 Zrotation Xrotation Yrotation
            JOINT rForeArm
            {
              OFFSET -28.3255 -0.9759 2.2888
              CHANNELS 3 Zrotation Xrotation Yrotation
              JOINT rHand
              {
                OFFSET -22.1583 -0.53 10.8316
                CHANNELS 3 Zrotation Xrotation Yrotation
                JOINT rThumb1
                {
                  OFFSET -0.786 0.112 2.5817
                  CHANNELS 3 Zrotation Xrotation Yrotation
                  JOINT rThumb2
                  {
                    OFFSET -0.3601 -0.878 4.2331
                    CHANNELS 3 Zrotation Xrotation Yrotation
                    JOINT rThumb2_End
                    {
                      OFFSET -1.8127 -1.216 2.2227
                      CHANNELS 3 Zrotation Xrotation Yrotation
                      End Site
                      {
                        OFFSET -0.0181 -0.0122 0.0222
                      }
                    }
                  }
                }
                JOINT rCarpal1
                {
                  OFFSET -0.9571 1.114 1.7695
                  CHANNELS 3 Zrotation Xrotation Yrotation
                  JOINT rIndex1
                  {
                    OFFSET -4.1246 0.487 4.1451
                    CHANNELS 3 Zrotation Xrotation Yrotation
                    JOINT rIndex2
                    {
                      OFFSET -3.4052 -1.454 2.7682
                      CHANNELS 3 Zrotation Xrotation Yrotation
                      JOINT rIndex2_End
                      {
                        OFFSET -1.4531 -1.795 1.2713
                        CHANNELS 3 Zrotation Xrotation Yrotation
                        End Site
                        {
                          OFFSET -0.0145 -0.018 0.0127
                        }
                      }
                    }
                  }
                  JOINT rMid1
                  {
                    OFFSET -5.6954 0.21 2.1184
                    CHANNELS 3 Zrotation Xrotation Yrotation
                    JOINT rMid2
                    {
                      OFFSET -3.9766 -1.54 2.3863
                      CHANNELS 3 Zrotation Xrotation Yrotation
                      JOINT rMid2_End
                      {
                        OFFSET -1.4042 -1.926 1.125
                        CHANNELS 3 Zrotation Xrotation Yrotation
                        End Site
                        {
                          OFFSET -0.014 -0.0193 0.0113
                        }
                      }
                    }
                  }
                }
                JOINT rCarpal2
                {
                  OFFSET -2.0956 0.66 -0.3894
                  CHANNELS 3 Zrotation Xrotation Yrotation
                  JOINT rRing1
                  {
                    OFFSET -5.0395 -0.09 2.4971
                    CHANNELS 3 Zrotation Xrotation Yrotation
                    JOINT rRing2
                    {
                      OFFSET -3.7921 -1.552 1.4806
                      CHANNELS 3 Zrotation Xrotation Yrotation
                      JOINT rRing2_End
                      {
                        OFFSET -1.4655 -1.808 0.9609
                        CHANNELS 3 Zrotation Xrotation Yrotation
                        End Site
                        {
                          OFFSET -0.0147 -0.0181 0.0096
                        }
                      }
                    }
                  }
                  JOINT rPinky1
                  {
                    OFFSET -4.9141 -1.269 0.3592
                    CHANNELS 3 Zrotation Xrotation Yrotation
                    JOINT rPinky2
                    {
                      OFFSET -3.1477 -1.685 0.8462
                      CHANNELS 3 Zrotation Xrotation Yrotation
                      JOINT rPinky2_End
                      {
                        OFFSET -0.8055 -1.585 0.7955
                        CHANNELS 3 Zrotation Xrotation Yrotation
                        End Site
                        {
                          OFFSET -0.0081 -0.0158 0.008
                        }
                      }
                    }
                  }
                }
              }
            }
          }
        }
      }
    }
  }
  JOINT lThigh
  {
    OFFSET 8.367 -8.2066 0.5982
    CHANNELS 3 Zrotation Xrotation Yrotation
    JOINT lShin
    {
      OFFSET 2.1923 -43.463 -0.4932
      CHANNELS 3 Zrotation Xrotation Yrotation
      JOINT lFoot
      {
        OFFSET 0.7333 -45.8593 -2.6451
        CHANNELS 3 Zrotation Xrotation Yrotation
        End Site
        {
          OFFSET 2.6618 -4.2699 12.3931
        }
      }
    }
  }
  JOINT rThigh
  {
    OFFSET -8.367 -8.2066 0.5982
    CHANNELS 3 Zrotation Xrotation Yrotation
    JOINT rShin
    {
      OFFSET -2.1923 -43.463 -0.4931
      CHANNELS 3 Zrotation Xrotation Yrotation
      JOINT rFoot
      {
        OFFSET -0.7333 -45.8593 -2.6451
        CHANNELS 3 Zrotation Xrotation Yrotation
        End Site
        {
          OFFSET -2.6618 -4.2699 12.3931
        }
      }
    }
  }
}
MOTION
Frames:	6
Frame Time:	0.0333333
42.385 -3.13799 -2.56428 -0 -87.2036 -0 -0.0271934 5.60243 -0.102126 -0.0446189 11.2049 -0.203032 -0.0446189 11.2049 -0.203032 9.36241e-006 -4.70728 1.36104e-006 -2.01665e-008 -25.5406 4.81145e-008 10.8263 12.4232 -24.7467 -54.3835 10.1772 0.647395 -5.02453 13.4219 -12.0549 1.96176 36.7785 -9.81997 -3.18055e-015 -5.56597e-015 -0 -3.18055e-015 -4.77083e-015 -3.18055e-015 3.18055e-015 -3.18055e-015 -3.18055e-015 -3.18055e-015 7.95139e-016 -0 -9.54166e-015 -7.15625e-015 3.18055e-015 -4.41391e-031 -7.95139e-015 -3.18055e-015 -2.20695e-031 -3.97569e-015 -3.18055e-015 -9.54166e-015 -7.15625e-015 3.18055e-015 -4.41391e-031 -7.95139e-015 -3.18055e-015 -2.20695e-031 -3.97569e-015 -3.18055e-015 -3.18055e-015 7.95139e-016 -0 -9.54166e-015 -7.15625e-015 3.18055e-015 -4.41391e-031 -7.95139e-015 -3.18055e-015 -2.20695e-031 -3.97569e-015 -3.18055e-015 -9.54166e-015 -7.15625e-015 3.18055e-015 -4.41391e-031 -7.95139e-015 -3.18055e-015 -2.20695e-031 -3.97569e-015 -3.18055e-015 -10.4199 12.3719 24.8049 54.827 10.2217 0.182252 3.24851 12.841 10.8334 -2.7259 36.4715 11.4108 -3.18055e-015 -7.95139e-016 3.18055e-015 1.76556e-031 -3.18055e-015 3.18055e-015 -2.20695e-031 -3.97569e-015 -3.18055e-015 -3.18055e-015 7.95139e-016 3.18055e-015 3.18055e-015 -9.54166e-015 3.18055e-015 -3.18055e-015 -2.38542e-015 -0 -0 -3.18055e-015 -0 3.18055e-015 -9.54166e-015 3.18055e-015 -3.18055e-015 -2.38542e-015 -0 -0 -3.18055e-015 -0 -3.18055e-015 7.95139e-016 3.18055e-015 3.18055e-015 -9.54166e-015 3.18055e-015 -3.18055e-015 -2.38542e-015 -0 -0 -3.18055e-015 -0 3.18055e-015 -9.54166e-015 3.18055e-015 -3.18055e-015 -2.38542e-015 -0 -0 -3.18055e-015 -0 143.393 -21.0936 172.574 169.206 58.0373 -173.51 7.41436 66.3104 4.35434 -134.515 -16.5979 -167.701 -160.193 49.9777 128.536 -16.6941 65.6863 0.754253 
42.4019 -3.1326 -2.69411 -0 -86.4051 -0 -0.026395 5.40304 -0.102563 -0.0433154 10.8061 -0.203983 -0.0433154 10.8061 -0.203983 1.28954e-006 -5.08941 5.1431e-007 -9.31429e-008 -26.1194 -5.17753e-008 9.65645 13.1338 -24.7535 -53.6052 10.0733 0.589614 -4.72415 13.2585 -11.077 2.6101 36.7267 -10.6999 0 1.59028e-015 -0 -6.36111e-015 3.97569e-015 9.54166e-015 0 1.59028e-015 -0 -8.82781e-032 -1.59028e-015 -3.18055e-015 3.18055e-015 4.77083e-015 9.54166e-015 6.36111e-015 3.97569e-015 3.18055e-015 3.18055e-015 3.97569e-015 -3.18055e-015 3.18055e-015 4.77083e-015 9.54166e-015 6.36111e-015 3.97569e-015 3.18055e-015 3.18055e-015 3.97569e-015 -3.18055e-015 -8.82781e-032 -1.59028e-015 -3.18055e-015 3.18055e-015 4.77083e-015 9.54166e-015 6.36111e-015 3.97569e-015 3.18055e-015 3.18055e-015 3.97569e-015 -3.18055e-015 3.18055e-015 4.77083e-015 9.54166e-015 6.36111e-015 3.97569e-015 3.18055e-015 3.18055e-015 3.97569e-015 -3.18055e-015 -9.21627 13.1033 24.8053 53.9977 10.1115 0.229823 2.93377 12.7083 9.8701 -3.35172 36.3931 12.2829 -6.36111e-015 -2.38542e-015 6.36111e-015 -6.36111e-015 -1.59028e-015 9.54166e-015 -1.59028e-014 -3.97569e-015 6.36111e-015 4.41391e-032 -7.95139e-016 3.18055e-015 -3.18055e-015 -1.19271e-014 6.36111e-015 -6.36111e-015 -2.38542e-015 6.36111e-015 -6.36111e-015 -3.97569e-015 3.18055e-015 -3.18055e-015 -1.19271e-014 6.36111e-015 -6.36111e-015 -2.38542e-015 6.36111e-015 -6.36111e-015 -3.97569e-015 3.18055e-015 4.41391e-032 -7.95139e-016 3.18055e-015 -3.18055e-015 -1.19271e-014 6.36111e-015 -6.36111e-015 -2.38542e-015 6.36111e-015 -6.36111e-015 -3.97569e-015 3.18055e-015 -3.18055e-015 -1.19271e-014 6.36111e-015 -6.36111e-015 -2.38542e-015 6.36111e-015 -6.36111e-015 -3.97569e-015 3.18055e-015 142.971 -20.4961 172.865 169.102 58.2849 -173.922 7.35302 66.2757 4.38221 -134.599 -16.8618 -167.601 -160.018 50.9667 129.787 -16.3757 65.6481 0.639867 
42.4173 -3.12649 -2.82222 -0 -85.606 -0 -0.0255974 5.20339 -0.102992 -0.0420189 10.4068 -0.204914 -0.0420189 10.4068 -0.204914 -2.40371e-006 -5.47172 -1.09413e-007 1.43612e-008 -26.6974 6.82078e-008 8.48045 13.846 -24.7453 -52.8267 9.96848 0.533296 -4.42071 13.0998 -10.0975 3.25732 36.6669 -11.5791 6.36111e-015 -7.15625e-015 -3.18055e-015 6.36111e-015 -7.15625e-015 -6.36111e-015 6.36111e-015 -8.74653e-015 -6.36111e-015 3.18055e-015 -7.95139e-016 -0 -9.54166e-015 -7.95139e-016 1.59028e-014 3.18055e-015 -7.15625e-015 -0 -3.53113e-031 -6.36111e-015 -3.18055e-015 -9.54166e-015 -7.95139e-016 1.59028e-014 3.18055e-015 -7.15625e-015 -0 -3.53113e-031 -6.36111e-015 -3.18055e-015 3.18055e-015 -7.95139e-016 -0 -9.54166e-015 -7.95139e-016 1.59028e-014 3.18055e-015 -7.15625e-015 -0 -3.53113e-031 -6.36111e-015 -3.18055e-015 -9.54166e-015 -7.95139e-016 1.59028e-014 3.18055e-015 -7.15625e-015 -0 -3.53113e-031 -6.36111e-015 -3.18055e-015 -8.006 13.8364 24.7899 53.1681 10.0005 0.275775 2.61654 12.5807 8.90519 -3.97574 36.307 13.1536 -3.97252e-031 7.15625e-015 3.18055e-015 -3.18055e-015 4.77083e-015 -0 6.36111e-015 3.97569e-015 3.18055e-015 -3.18055e-015 7.95139e-016 -0 9.54166e-015 -3.97569e-015 1.27222e-014 6.36111e-015 4.77083e-015 3.18055e-015 9.54166e-015 5.56597e-015 3.18055e-015 9.54166e-015 -3.97569e-015 1.27222e-014 6.36111e-015 4.77083e-015 3.18055e-015 9.54166e-015 5.56597e-015 3.18055e-015 -3.18055e-015 7.95139e-016 -0 9.54166e-015 -3.97569e-015 1.27222e-014 6.36111e-015 4.77083e-015 3.18055e-015 9.54166e-015 5.56597e-015 3.18055e-015 9.54166e-015 -3.97569e-015 1.27222e-014 6.36111e-015 4.77083e-015 3.18055e-015 9.54166e-015 5.56597e-015 3.18055e-015 142.547 -19.8977 173.159 169.001 58.5321 -174.337 7.29269 66.2417 4.40867 -134.685 -17.1195 -167.504 -159.869 51.9615 131.053 -16.069 65.6077 0.529316 
42.4311 -3.11966 -2.94863 -0 -84.8063 -0 -0.0248007 5.00352 -0.103412 -0.0407299 10.0071 -0.205826 -0.0407299 10.0071 -0.205826 1.58695e-007 -5.85446 -1.32907e-008 1.13899e-007 -27.2746 1.41399e-007 7.29824 14.5593 -24.7219 -52.048 9.86289 0.478366 -4.11432 12.9461 -9.11654 3.90314 36.5991 -12.457 -0 -1.27222e-014 -0 -2.64834e-030 -1.19271e-014 -1.27222e-014 3.18055e-015 -1.98785e-014 -3.18055e-015 0 7.95139e-016 -0 3.18055e-015 -7.95139e-016 -0 -7.94503e-031 -1.43125e-014 -3.18055e-015 -0 -1.27222e-014 -0 3.18055e-015 -7.95139e-016 -0 -7.94503e-031 -1.43125e-014 -3.18055e-015 -0 -1.27222e-014 -0 0 7.95139e-016 -0 3.18055e-015 -7.95139e-016 -0 -7.94503e-031 -1.43125e-014 -3.18055e-015 -0 -1.27222e-014 -0 3.18055e-015 -7.95139e-016 -0 -7.94503e-031 -1.43125e-014 -3.18055e-015 -0 -1.27222e-014 -0 -6.789 14.5705 24.7584 52.3382 9.88886 0.320136 2.29688 12.4581 7.93879 -4.59766 36.2132 14.0225 -3.18055e-015 4.77083e-015 -0 -6.36111e-015 5.56597e-015 -3.18055e-015 -6.36111e-015 1.59028e-015 -3.18055e-015 0 7.95139e-016 -0 3.18055e-015 -1.43125e-014 6.36111e-015 -3.18055e-015 5.56597e-015 -6.36111e-015 -9.54166e-015 3.97569e-015 -6.36111e-015 3.18055e-015 -1.43125e-014 6.36111e-015 -3.18055e-015 5.56597e-015 -6.36111e-015 -9.54166e-015 3.97569e-015 -6.36111e-015 0 7.95139e-016 -0 3.18055e-015 -1.43125e-014 6.36111e-015 -3.18055e-015 5.56597e-015 -6.36111e-015 -9.54166e-015 3.97569e-015 -6.36111e-015 3.18055e-015 -1.43125e-014 6.36111e-015 -3.18055e-015 5.56597e-015 -6.36111e-015 -9.54166e-015 3.97569e-015 -6.36111e-015 142.121 -19.2986 173.455 168.903 58.7786 -174.756 7.23314 66.2084 4.43397 -134.773 -17.3712 -167.413 -159.747 52.9612 132.336 -15.7736 65.5655 0.422593 
42.4432 -3.11218 -3.07336 -0 -84.0062 -0 -0.0240049 4.80349 -0.103825 -0.0394478 9.607 -0.206719 -0.0394479 9.607 -0.206719 1.84911e-006 -6.2369 2.22237e-007 -8.00374e-008 -27.8508 -1.33603e-007 6.10973 15.2732 -24.6831 -51.2693 9.75651 0.424899 -3.80511 12.7973 -8.13415 4.5473 36.5234 -13.3336 -3.18055e-015 -1.19271e-014 3.18055e-015 -0 -1.11319e-014 -0 -6.36111e-015 -1.03368e-014 -0 3.53113e-031 -3.18055e-015 6.36111e-015 3.18055e-015 -2.38542e-015 6.36111e-015 3.18055e-015 -1.11319e-014 -3.18055e-015 -3.18055e-015 -1.19271e-014 3.18055e-015 3.18055e-015 -2.38542e-015 6.36111e-015 3.18055e-015 -1.11319e-014 -3.18055e-015 -3.18055e-015 -1.19271e-014 3.18055e-015 3.53113e-031 -3.18055e-015 6.36111e-015 3.18055e-015 -2.38542e-015 6.36111e-015 3.18055e-015 -1.11319e-014 -3.18055e-015 -3.18055e-015 -1.19271e-014 3.18055e-015 3.18055e-015 -2.38542e-015 6.36111e-015 3.18055e-015 -1.11319e-014 -3.18055e-015 -3.18055e-015 -1.19271e-014 3.18055e-015 -5.56515 15.3052 24.7105 51.5081 9.77649 0.362835 1.97495 12.3406 6.97114 -5.21729 36.1118 14.8895 -6.36111e-015 0 -0 -3.18055e-015 -2.38542e-015 -3.18055e-015 9.54166e-015 0 -6.36111e-015 -6.36111e-015 0 3.18055e-015 -9.54166e-015 -9.54166e-015 1.27222e-014 0 0 -3.18055e-015 6.36111e-015 -2.38542e-015 -3.18055e-015 -9.54166e-015 -9.54166e-015 1.27222e-014 0 0 -3.18055e-015 6.36111e-015 -2.38542e-015 -3.18055e-015 -6.36111e-015 0 3.18055e-015 -9.54166e-015 -9.54166e-015 1.27222e-014 0 0 -3.18055e-015 6.36111e-015 -2.38542e-015 -3.18055e-015 -9.54166e-015 -9.54166e-015 1.27222e-014 0 0 -3.18055e-015 6.36111e-015 -2.38542e-015 -3.18055e-015 141.694 -18.6988 173.755 168.809 59.0247 -175.179 7.17437 66.1757 4.45806 -134.864 -17.6171 -167.326 -159.654 53.9653 133.639 -15.489 65.5218 0.31952 
42.4536 -3.10407 -3.19641 -0 -83.2057 -0 -0.0232102 4.60327 -0.10423 -0.0381732 9.20658 -0.207592 -0.0381733 9.20658 -0.207593 -1.17026e-005 -6.61747 -2.49619e-006 -1.09779e-007 -28.4262 -1.71316e-008 4.91483 15.9873 -24.6288 -50.4905 9.64937 0.372905 -3.49323 12.6536 -7.15066 5.18952 36.4397 -14.2085 -3.18055e-015 0 -6.36111e-015 3.18055e-015 7.95139e-016 -9.54166e-015 3.18055e-015 7.95139e-016 -3.18055e-015 -3.18055e-015 -1.59028e-015 -0 3.18055e-015 7.95139e-015 9.54166e-015 3.18055e-015 0 -0 -3.18055e-015 2.38542e-015 -3.18055e-015 3.18055e-015 7.95139e-015 9.54166e-015 3.18055e-015 0 -0 -3.18055e-015 2.38542e-015 -3.18055e-015 -3.18055e-015 -1.59028e-015 -0 3.18055e-015 7.95139e-015 9.54166e-015 3.18055e-015 0 -0 -3.18055e-015 2.38542e-015 -3.18055e-015 3.18055e-015 7.95139e-015 9.54166e-015 3.18055e-015 0 -0 -3.18055e-015 2.38542e-015 -3.18055e-015 -4.33436 16.0399 24.646 50.6781 9.66347 0.4039 1.65087 12.2284 6.00237 -5.83434 36.0027 15.7542 3.18055e-015 7.95139e-016 3.18055e-015 -3.18055e-015 1.59028e-015 3.18055e-015 -6.36111e-015 1.59028e-015 9.54166e-015 3.18055e-015 -7.95139e-016 -3.18055e-015 -3.18055e-015 -7.15625e-015 6.36111e-015 -3.18055e-015 2.38542e-015 6.36111e-015 3.18055e-015 2.38542e-015 -0 -3.18055e-015 -7.15625e-015 6.36111e-015 -3.18055e-015 2.38542e-015 6.36111e-015 3.18055e-015 2.38542e-015 -0 3.18055e-015 -7.95139e-016 -3.18055e-015 -3.18055e-015 -7.15625e-015 6.36111e-015 -3.18055e-015 2.38542e-015 6.36111e-015 3.18055e-015 2.38542e-015 -0 -3.18055e-015 -7.15625e-015 6.36111e-015 -3.18055e-015 2.38542e-015 6.36111e-015 3.18055e-015 2.38542e-015 -0 141.265 -18.0986 174.057 168.717 59.2703 -175.605 7.11619 66.1437 4.48108 -134.957 -17.8577 -167.244 -159.592 54.9729 134.964 -15.2147 65.4769 0.219824 
